<svg width="20" height="16" viewBox="0 0 20 16" fill="none" xmlns="http://www.w3.org/2000/svg">
<path fill-rule="evenodd" clip-rule="evenodd" d="M3.3502 0.496902C3.3502 0.496902 3.10698 0.656535 2.99996 0.771649L2.80538 0.981018L2.7846 7.35695L2.76381 13.9453L1.67187 13.9999H0.855957V14.6438V15.4999H10.0012H19.1465V14.6438V13.9999H18.3314H17.5162L17.4947 9.89747L17.4731 6.00727L17.2188 5.75291L16.9646 5.49848L15.5649 5.47412L14.1653 5.44975V6.31081V6.99991H14.9825H16.1833V10.4999V13.9999H14.1666H12.5334L12.5126 7.40684L12.4919 1.02609L12.2374 0.771653L11.9831 0.517219L7.60642 0.501731C5.1993 0.493169 3.3502 0.496902 3.3502 0.496902ZM3.99996 7.98911V13.9999H7.51061H11.1833V7.99991L11.2731 1.85639H7.51061H3.99996V4.99991V7.98911ZM5.83721 4.68124V5.29466H7.51061H9.184V4.68124V3.82509H7.51061H5.83721V4.68124ZM5.83721 7.98911V8.49991H7.51061H9.184V7.98911V7.17187H7.51061H5.83721V7.98911Z" fill="#354E96"/>
</svg>
