<svg width="12" height="13" viewBox="0 0 12 13" fill="none" xmlns="http://www.w3.org/2000/svg">
<path fill-rule="evenodd" clip-rule="evenodd" d="M4.05341 0.189681C3.92945 0.247038 3.75963 0.366936 3.67608 0.456071C3.40693 0.743082 3.34912 0.970651 3.34912 1.74317V2.44926H2.10777C0.677899 2.44926 0.526957 2.48171 0.385874 2.81932C0.232846 3.18566 0.428638 3.59742 0.787937 3.6648C0.895045 3.68492 0.982715 3.73005 0.982715 3.76509C0.982715 3.80019 1.10932 5.3503 1.26409 7.20984C1.44647 9.40181 1.57758 10.699 1.63691 10.8984C1.70881 11.1402 1.80234 11.2798 2.07391 11.5508C2.62607 12.1017 2.50386 12.0839 5.73964 12.0839L8.5045 12.0838L8.85721 11.917C9.3204 11.6978 9.72844 11.2889 9.84642 10.9256C9.90682 10.7395 10.031 9.51421 10.2208 7.23131C10.3769 5.35261 10.5047 3.78977 10.5047 3.75839C10.5047 3.727 10.5923 3.68492 10.6995 3.6648C11.0588 3.59742 11.2545 3.18566 11.1015 2.81932C10.9604 2.48171 10.8095 2.44926 9.37962 2.44926H8.13827L8.13703 1.73089C8.13568 0.934873 8.06773 0.693669 7.76505 0.409813C7.4377 0.102857 7.31211 0.0827424 5.73141 0.0840373C4.43783 0.0852215 4.2541 0.0967718 4.05341 0.189681ZM4.53232 1.85766V2.44926H5.74369H6.95507V1.85766V1.26606H5.74369H4.53232V1.85766ZM2.22378 3.84375C2.22457 3.92899 2.34796 5.4578 2.49789 7.24111C2.68636 9.48232 2.79448 10.5219 2.848 10.6077C3.02661 10.8936 3.09687 10.9007 5.74369 10.9007C8.39424 10.9007 8.45914 10.8941 8.64209 10.6049C8.69933 10.5144 8.79934 9.55844 8.9913 7.26658C9.13926 5.50023 9.26141 3.9726 9.26271 3.87192L9.26513 3.6888H5.74369H2.22226L2.22378 3.84375ZM4.25061 4.94407C4.17313 4.98278 4.06541 5.10284 4.01126 5.21085C3.92331 5.38614 3.91272 5.61021 3.91272 7.29475C3.91272 9.46328 3.92145 9.51157 4.33985 9.6562C4.54883 9.72843 4.59007 9.72589 4.79015 9.62803C4.91123 9.56875 5.04189 9.45691 5.08037 9.37944C5.1322 9.27526 5.15063 8.71984 5.15125 7.24686L5.15209 5.25514L4.96053 5.06357C4.7511 4.85415 4.5113 4.8138 4.25061 4.94407ZM6.52686 5.06357L6.3353 5.25514L6.33614 7.24686C6.33676 8.71984 6.35518 9.27526 6.40702 9.37944C6.4455 9.45691 6.57616 9.56875 6.69724 9.62803C6.89732 9.72589 6.93856 9.72843 7.14753 9.6562C7.56594 9.51157 7.57467 9.46328 7.57467 7.29475C7.57467 5.61021 7.56408 5.38614 7.47613 5.21085C7.28146 4.82265 6.8368 4.75363 6.52686 5.06357Z" fill="#354E96"/>
</svg>
