<svg width="25" height="24" viewBox="0 0 25 24" fill="none" xmlns="http://www.w3.org/2000/svg">
<g id="Icon">
<path id="Icon_2" d="M14.2225 2.77866C13.7972 1.46988 11.9457 1.46989 11.5204 2.77866L10.01 7.42661C9.93388 7.66072 9.71571 7.81923 9.46954 7.81924L4.58234 7.81942C3.20619 7.81948 2.63403 9.58043 3.74733 10.3893L7.70104 13.2621C7.90019 13.4068 7.98352 13.6633 7.90746 13.8974L6.39741 18.5455C5.97221 19.8543 7.47016 20.9426 8.58352 20.1338L12.5374 17.2613C12.7366 17.1166 13.0063 17.1166 13.2054 17.2613L17.1594 20.1338C18.2727 20.9426 19.7707 19.8543 19.3455 18.5455L17.8354 13.8974C17.7594 13.6633 17.8427 13.4068 18.0418 13.2621L21.9956 10.3893C23.1089 9.58042 22.5367 7.81948 21.1605 7.81942L16.2733 7.81924C16.0272 7.81923 15.809 7.66072 15.7329 7.42661L14.2225 2.77866Z" stroke="#717171" stroke-width="0.852381"/>
</g>
</svg>
